<svg width="20" height="20" viewBox="0 0 20 20" fill="none" xmlns="http://www.w3.org/2000/svg">
<g clip-path="url(#clip0_487_2392)">
<path fill-rule="evenodd" clip-rule="evenodd" d="M10 2C5.58172 2 2 5.58172 2 9.99999C2 14.4183 5.58172 18 10 18C14.4183 18 18 14.4183 18 9.99999C18 5.58172 14.4183 2 10 2ZM0 9.99999C0 4.47715 4.47715 0 10 0C15.5228 0 20 4.47715 20 9.99999C20 15.5229 15.5228 20 10 20C4.47715 20 0 15.5229 0 9.99999ZM10 3C10.5523 3 11 3.44772 11 4V11C11 11.5523 10.5523 12 10 12C9.4477 12 9 11.5523 9 11V4C9 3.44772 9.4477 3 10 3ZM10 14C10.5523 14 11 14.4477 11 15V16C11 16.5523 10.5523 17 10 17C9.4477 17 9 16.5523 9 16V15C9 14.4477 9.4477 14 10 14Z" fill="#383838"/>
</g>
<defs>
<clipPath id="clip0_487_2392">
<rect width="20" height="20" fill="white"/>
</clipPath>
</defs>
</svg>
