<svg width="20" height="20" viewBox="0 0 20 20" fill="none" xmlns="http://www.w3.org/2000/svg">
<g clip-path="url(#clip0_685_5430)">
<path d="M10 17C9.1969 17 8.4941 16.6946 7.99216 16.0838L2.47059 9.3653C1.96863 8.7545 1.86824 7.83832 2.16941 7.12575C2.47059 6.41317 3.17333 5.90419 3.97647 5.90419H6.28549V2.34132C6.28549 1.01796 7.3898 0 8.6949 0H11.4055C12.7106 0 13.7145 1.01796 13.7145 2.34132V5.90419H16.0235C16.8267 5.90419 17.5294 6.31138 17.8306 7.12575C18.1318 7.83832 18.0314 8.6527 17.5294 9.2635L12.0078 16.0838C11.5059 16.6946 10.8031 17 10 17ZM3.97647 8.0419L9.498 14.7605C9.6988 14.9641 9.8996 14.9641 10 14.9641C10.1004 14.9641 10.3012 14.9641 10.502 14.7605L16.0235 8.0419H12.7106C12.1082 8.0419 11.7067 7.63473 11.7067 7.02395V2.34132C11.7067 2.13772 11.5059 2.03593 11.4055 2.03593H8.6949C8.4941 2.03593 8.2933 2.23952 8.2933 2.34132V6.92216C8.2933 7.53293 7.89177 7.94012 7.28941 7.94012H3.97647V8.0419Z" fill="#383838"/>
<path d="M16.4179 20H3.48259C1.49254 20 0 18.5 0 16.5V14C0 13.4 0.39801 13 0.99502 13C1.59204 13 1.99005 13.4 1.99005 14V16.5C1.99005 17.3 2.68657 18 3.48259 18H16.5174C17.3134 18 18.01 17.3 18.01 16.5V14C18.01 13.4 18.408 13 19.005 13C19.602 13 20 13.4 20 14V16.5C19.9005 18.5 18.408 20 16.4179 20Z" fill="#383838"/>
</g>
<defs>
<clipPath id="clip0_685_5430">
<rect width="20" height="20" fill="white"/>
</clipPath>
</defs>
</svg>
