<svg width="24" height="20" viewBox="0 0 24 20" fill="none" xmlns="http://www.w3.org/2000/svg">
<path d="M21.8005 7.8C19.8005 6.1 16.5005 4 12.0005 4C11.5005 4 11.0005 4 10.7005 4.1C10.1005 4.2 9.70047 4.7 9.80047 5.3C9.90047 5.8 10.4005 6.2 10.9005 6.2C11.2005 6.2 11.6005 6.1 12.0005 6.1C15.9005 6.1 18.8005 7.9 20.5005 9.4C20.8005 9.6 21.0005 10 21.0005 10.5C21.0005 11 20.8005 11.3 20.5005 11.6C19.9005 12.1 19.2005 12.6 18.5005 13C18.0005 13.3 17.9005 13.9 18.1005 14.4C18.3005 14.7 18.6005 14.9 19.0005 14.9C19.2005 14.9 19.3005 14.9 19.5005 14.8C20.3005 14.3 21.1005 13.8 21.8005 13.2C22.6005 12.5 23.0005 11.6 23.0005 10.6C23.0005 9.4 22.6005 8.5 21.8005 7.8Z" fill="#A6A6A6"/>
<path d="M4.2 1.3C3.8 0.9 3.2 0.9 2.8 1.3C2.4 1.7 2.4 2.3 2.8 2.7L5.6 5.5C4.2 6.3 3 7.2 2.2 7.8C1.4 8.5 1 9.4 1 10.5C1 11.6 1.4 12.5 2.2 13.1C4.2 14.8 7.5 16.9 12 16.9C13.5 16.9 14.9 16.7 16.3 16.2L19.8 19.7C20 19.9 20.3 20 20.5 20C20.7 20 21 19.9 21.2 19.7C21.6 19.3 21.6 18.7 21.2 18.3L4.2 1.3ZM12 14.8C8.1 14.8 5.2 13 3.5 11.5C3.2 11.3 3 10.9 3 10.5C3 10.1 3.2 9.7 3.5 9.4C4.3 8.7 5.6 7.8 7.2 7.1L9.8 9.7C9.7 9.9 9.7 10.2 9.7 10.5C9.7 11.8 10.7 12.8 12 12.8C12.3 12.8 12.5 12.7 12.8 12.7L14.7 14.6C13.8 14.7 12.9 14.8 12 14.8Z" fill="#A6A6A6"/>
</svg>
