<svg width="24" height="20" viewBox="0 0 24 20" fill="none" xmlns="http://www.w3.org/2000/svg">
<path d="M21.8 7.8C19.8 6 16.5 4 12 4C7.5 4 4.2 6 2.2 7.8C1.4 8.4 1 9.4 1 10.4C1 11.4 1.4 12.4 2.2 13C4.2 14.7 7.5 16.8 12 16.8C16.5 16.8 19.8 14.8 21.8 13C22.6 12.4 23 11.4 23 10.4C23 9.4 22.6 8.4 21.8 7.8ZM20.5 11.5C18.8 13 15.9 14.8 12 14.8C8.1 14.8 5.2 13 3.5 11.5C3.2 11.2 3 10.8 3 10.4C3 10 3.2 9.6 3.5 9.3C5.2 7.8 8.1 6 12 6C15.9 6 18.8 7.8 20.5 9.3C20.8 9.5 21 9.9 21 10.4C21 10.8 20.8 11.2 20.5 11.5Z" fill="#A6A6A6"/>
<path d="M12.0002 12.7C13.2705 12.7 14.3002 11.6703 14.3002 10.4C14.3002 9.1298 13.2705 8.1 12.0002 8.1C10.73 8.1 9.7002 9.1298 9.7002 10.4C9.7002 11.6703 10.73 12.7 12.0002 12.7Z" fill="#A6A6A6"/>
</svg>
