<svg width="20" height="20" viewBox="0 0 20 20" fill="none" xmlns="http://www.w3.org/2000/svg">
<g clip-path="url(#clip0_723_17122)">
<path fill-rule="evenodd" clip-rule="evenodd" d="M0.747151 4.4888C-0.865079 2.87383 0.292462 0 2.6257 0H17.3733C19.7066 0 20.8641 2.87381 19.2519 4.48878L19.249 4.49168L13.4275 10.3914V15.5493C13.4275 16.3778 13.0251 17.2566 12.2522 17.7359L9.39651 19.6967L9.38471 19.7047C8.74871 20.1281 8.01661 20.0552 7.49046 19.7447C6.97511 19.4406 6.57156 18.8626 6.57156 18.1538V10.3914L0.747151 4.4888ZM2.05521 2.40276C1.94879 2.66089 1.99741 2.91085 2.16334 3.07657L2.1685 3.08172L8.28341 9.27869C8.46801 9.46579 8.57161 9.71809 8.57161 9.98099V17.837L11.1421 16.0721C11.159 16.0604 11.1764 16.0493 11.1941 16.0387C11.3008 15.9747 11.4275 15.7878 11.4275 15.5493V9.98099C11.4275 9.71809 11.531 9.46579 11.7157 9.27869L17.8357 3.07655C18.0016 2.91083 18.0503 2.66089 17.9438 2.40276C17.8396 2.14985 17.6315 2 17.3733 2H2.6257C2.36759 2 2.15949 2.14985 2.05521 2.40276Z" fill="#383838"/>
</g>
<defs>
<clipPath id="clip0_723_17122">
<rect width="20" height="20" fill="white"/>
</clipPath>
</defs>
</svg>
