<svg width="20" height="20" viewBox="0 0 20 20" fill="none" xmlns="http://www.w3.org/2000/svg">
<g clip-path="url(#clip0_713_13853)">
<path fill-rule="evenodd" clip-rule="evenodd" d="M16.6961 3.30388C14.9576 1.56537 12.0424 1.56537 10.3039 3.30388L8.7071 4.90066C8.3166 5.29118 7.68342 5.29118 7.29289 4.90066C6.90237 4.51013 6.90237 3.87697 7.29289 3.48644L8.8897 1.88967C11.4092 -0.62989 15.5908 -0.62989 18.1103 1.88967C20.6299 4.40923 20.6299 8.59079 18.1103 11.1103L16.5136 12.7071C16.123 13.0976 15.4899 13.0976 15.0993 12.7071C14.7088 12.3166 14.7088 11.6834 15.0993 11.2929L16.6961 9.69609C18.4346 7.95759 18.4346 5.04239 16.6961 3.30388ZM13.7071 6.2929C14.0976 6.68342 14.0976 7.31658 13.7071 7.70709L7.70711 13.7071C7.31658 14.0976 6.68342 14.0976 6.29289 13.7071C5.90237 13.3166 5.90237 12.6834 6.29289 12.2929L12.2929 6.2929C12.6834 5.90237 13.3166 5.90237 13.7071 6.2929ZM4.90066 7.2929C5.29118 7.68342 5.29118 8.31659 4.90066 8.70709L3.30388 10.3039C1.56537 12.0424 1.56537 14.9576 3.30388 16.6961C5.04239 18.4346 7.95761 18.4346 9.6961 16.6961L11.2929 15.0994C11.6834 14.7088 12.3166 14.7088 12.7071 15.0994C13.0976 15.4899 13.0976 16.123 12.7071 16.5136L11.1103 18.1103C8.5908 20.6299 4.40922 20.6299 1.88967 18.1103C-0.62989 15.5908 -0.62989 11.4092 1.88967 8.88969L3.48644 7.2929C3.87697 6.90237 4.51013 6.90237 4.90066 7.2929Z" fill="#383838"/>
</g>
<defs>
<clipPath id="clip0_713_13853">
<rect width="20" height="20" fill="white"/>
</clipPath>
</defs>
</svg>
