<svg width="147" height="30" viewBox="0 0 147 30" fill="none" xmlns="http://www.w3.org/2000/svg">
<path d="M15.459 0C18.1185 1.9264e-05 20.8425 0.357022 23.6299 1.07129C24.3086 1.23725 24.9709 1.41864 25.6169 1.61544C28.9118 2.61928 30.1986 6.35571 29.1126 9.62446C29.037 9.8521 28.9611 10.0831 28.8848 10.3174C28.7136 10.9077 28.0065 11.1051 27.4839 10.7816C26.2455 10.0151 24.6155 9.35782 22.5938 8.80957C19.9598 8.06884 17.6326 7.69825 15.6123 7.69824C13.183 7.69824 11.5461 7.86999 10.7021 8.21387C9.85836 8.53128 9.43665 9.0078 9.43652 9.64258C9.43652 10.2774 10.0115 10.7936 11.1621 11.1904C12.3384 11.5608 14.0265 11.7461 16.2256 11.7461C21.6471 11.7461 25.586 12.3941 28.041 13.6904C30.4959 14.9603 31.7236 16.918 31.7236 19.5635C31.7236 23.2671 30.419 25.9389 27.8105 27.5791C25.2021 29.1929 21.2507 30 15.957 30C13.1185 30 10.2289 29.6827 7.28809 29.0479C5.90203 28.7361 4.58131 28.3597 3.32592 27.9187C1.12322 27.1448 0.480103 24.5229 1.49609 22.4209C2.51833 20.3979 5.02176 19.461 7.16133 20.2093C7.91107 20.4715 8.69486 20.7061 9.5127 20.9131C11.9164 21.5215 14.1543 21.8252 16.2256 21.8252C18.3481 21.8252 19.8444 21.6399 20.7139 21.2695C21.5834 20.8727 22.0186 20.4497 22.0186 20C22.0185 18.3863 19.6401 17.5791 14.8838 17.5791C9.66722 17.5791 5.88207 17.024 3.5293 15.9131C1.17657 14.7755 3.75243e-06 12.9497 0 10.4365C0 6.86521 1.43189 4.23317 4.2959 2.54004C7.1601 0.846917 10.8814 0 15.459 0ZM140.278 21.5479C141.378 21.5479 142.324 21.9711 143.116 22.8174C143.935 23.6375 144.344 24.6164 144.344 25.7539C144.344 26.9179 143.935 27.923 143.116 28.7695C142.324 29.5895 141.378 29.9999 140.278 30C139.153 30 138.194 29.5896 137.401 28.7695C136.609 27.923 136.212 26.9179 136.212 25.7539C136.212 24.5899 136.609 23.5974 137.401 22.7773C138.194 21.9575 139.153 21.5479 140.278 21.5479ZM103.343 14.8626C103.343 18.5685 106.362 21.57 110.067 21.5119C112.883 21.4677 115.467 21.409 117.817 21.3359C119.786 21.2747 121.264 23.1129 121.143 25.0791C120.989 27.5743 119.001 29.6035 116.501 29.6035H100.931C97.1397 29.6035 94.1164 26.4497 94.2023 22.659C94.2608 20.0773 94.29 17.5904 94.29 15.1982C94.29 14.8105 94.2892 14.4204 94.2876 14.0277C94.276 11.2574 91.9866 9.01088 89.2168 8.95734C86.3343 8.90163 84.0527 11.2365 84.0527 14.1195V24.8086C84.0527 27.4568 81.906 29.6035 79.2578 29.6035C76.6097 29.6035 74.4629 27.4568 74.4629 24.8086V14.6652C74.4629 11.4814 71.8703 8.79933 68.7118 8.39911C66.7622 8.15208 64.7934 7.91729 62.8052 7.98328C62.8033 7.98335 62.8018 7.98182 62.8018 7.97992C62.8018 7.97807 62.8003 7.97656 62.7984 7.97656H45.459C44.3959 7.97656 43.5342 8.83833 43.5342 9.90138C43.5342 10.9483 44.3705 11.8025 45.4173 11.8119C46.4108 11.8207 47.5989 11.8252 48.9814 11.8252C51.9749 11.8252 55.0447 11.7821 58.1906 11.696C60.0542 11.645 61.6016 13.1353 61.6016 14.9995C61.6016 16.8638 60.0542 18.354 58.1906 18.3032C55.0447 18.2174 51.9749 18.1748 48.9814 18.1748C47.6686 18.1748 46.5312 18.1786 45.5692 18.1863C44.4379 18.1954 43.5342 19.1182 43.5342 20.2495C43.5342 21.4027 44.4741 22.3359 45.6272 22.3277C52.1549 22.2812 57.3736 22.1893 61.2829 22.052C63.0234 21.9909 64.4017 23.5374 64.3252 25.2773C64.2715 27.6662 62.3501 29.6035 59.9607 29.6035H41.4294C37.6378 29.6035 34.6145 26.4497 34.7004 22.659C34.7589 20.0773 34.7881 17.5904 34.7881 15.1982C34.7881 12.8063 34.7589 10.3197 34.7004 7.7385C34.6145 3.94781 37.6378 0.793945 41.4294 0.793945H96.6662C100.354 0.793945 103.343 3.78314 103.343 7.47049V14.8626ZM118.912 0.793945C120.639 0.793945 122.224 1.7881 123.019 3.32053C123.693 4.62061 124.525 6.17269 125.513 7.97656C126.972 10.6854 131.105 10.6436 132.56 7.93226C132.601 7.8546 132.643 7.77659 132.686 7.69824C133.643 5.91802 134.432 4.42615 135.05 3.22255C135.807 1.75212 137.312 0.793945 138.965 0.793945H145.325C145.916 0.793945 146.274 1.44554 145.958 1.94434C143.222 6.33579 140.869 10.2251 138.9 13.6113C137.204 16.5441 135.75 19.2751 134.541 21.8046C134.198 22.5216 134.028 23.308 134.028 24.1028V24.5977C134.028 27.3623 131.787 29.6035 129.022 29.6035C126.258 29.6035 124.017 27.3623 124.017 24.5977V23.5836C124.017 22.687 123.821 21.7996 123.416 20.9994C122.609 19.4035 121.697 17.7742 120.68 16.1113C119.401 13.995 117.585 11.098 115.232 7.4209C113.336 4.53327 115.458 0.793945 118.912 0.793945Z" fill="black"/>
</svg>
