<svg width="57" height="30" viewBox="0 0 57 30" fill="none" xmlns="http://www.w3.org/2000/svg">
<path d="M5.99009 0.00573127C8.15414 0.135798 9.57956 2.38424 9.0722 4.492C8.88359 5.27557 8.71172 6.10156 8.55664 6.96999C8.11244 9.56512 7.89062 12.2189 7.89062 14.9309C7.89063 17.6664 8.11242 20.3319 8.55664 22.927C8.71812 23.8232 8.8992 24.6804 9.09983 25.4985C9.6191 27.6161 8.18866 29.8652 6.01222 29.9946C4.76474 30.0688 3.58024 29.4094 3.04355 28.2809C2.05323 26.1983 1.33108 24.285 0.876953 22.5413C0.292457 20.2968 8.82128e-06 17.7599 0 14.9309C0 12.0552 0.292448 9.50653 0.876953 7.28542C1.34896 5.54266 2.08173 3.66604 3.07527 1.65549C3.61505 0.563172 4.77388 -0.0673673 5.99009 0.00573127ZM50.6603 0.00573102C51.8765 -0.0673674 53.0357 0.563004 53.5737 1.65621C54.563 3.66649 55.2845 5.54287 55.7383 7.28542C56.3462 9.50653 56.6504 12.0552 56.6504 14.9309C56.6504 17.7599 56.3579 20.2968 55.7734 22.5413C55.3193 24.285 54.5972 26.1983 53.6068 28.2808C53.0702 29.4094 51.8857 30.0688 50.6382 29.9946C48.4617 29.8652 47.0304 27.6151 47.5365 25.4944C47.7314 24.6775 47.9054 23.8217 48.0586 22.927C48.5262 20.3319 48.7598 17.6664 48.7598 14.9309C48.7598 12.2189 48.5262 9.56513 48.0586 6.96999C47.9115 6.10313 47.7465 5.27856 47.5635 4.49626C47.0696 2.3853 48.4963 0.135798 50.6603 0.00573102ZM27.6494 2.09499C30.0809 2.095 32.5708 2.41101 35.1191 3.04225C36.3556 3.3345 37.5326 3.68063 38.6503 4.08079C40.6247 4.78773 41.4064 7.05811 40.6882 9.02847C40.4376 9.7161 40.1828 10.4443 39.9238 11.2132C39.7652 11.7418 39.1345 11.9193 38.6615 11.6349C37.5272 10.9529 36.031 10.3682 34.1729 9.88112C31.7649 9.22653 29.637 8.89875 27.79 8.8987C25.569 8.8987 24.0724 9.05084 23.3008 9.35475C22.5292 9.63532 22.1436 10.0563 22.1436 10.6174C22.1437 11.1784 22.6698 11.634 23.7217 11.9846C24.7971 12.3119 26.34 12.4758 28.3506 12.4758C33.3072 12.4758 36.9078 13.049 39.1523 14.1946C41.3968 15.3168 42.5195 17.047 42.5195 19.385C42.5195 22.658 41.3269 25.0195 38.9424 26.469C36.5576 27.8952 32.945 28.6086 28.1055 28.6087C25.5104 28.6087 22.8683 28.3279 20.1797 27.7669C18.8852 27.4855 17.6529 27.1443 16.483 26.7436C14.5332 26.0757 13.9621 23.7529 14.8838 21.9094C15.8254 20.1081 18.0549 19.2677 19.9779 19.9261C20.6895 20.1697 21.4348 20.3868 22.2139 20.5774C24.4114 21.1151 26.457 21.384 28.3506 21.384C30.2911 21.384 31.6592 21.2202 32.4541 20.8928C33.2488 20.5422 33.6463 20.1681 33.6465 19.7708C33.6465 18.3446 31.4718 17.6311 27.123 17.6311C22.3536 17.6311 18.8931 17.1404 16.7422 16.1585C14.5913 15.1531 13.5156 13.5397 13.5156 11.3186C13.5156 8.16229 14.8258 5.83546 17.4443 4.33913C20.0628 2.84301 23.4647 2.09499 27.6494 2.09499Z" fill="black"/>
</svg>
