<svg width="20" height="20" viewBox="0 0 20 20" fill="none" xmlns="http://www.w3.org/2000/svg">
<g clip-path="url(#clip0_2373_20179)">
<path d="M18.5532 4.57396L15.4261 1.44678L9.21411 7.00325L9.46665 10.5334L12.9968 10.7859L18.5532 4.57396Z" fill="#245DF5"/>
<path d="M19.2088 5.88505L14.115 0.791268C13.934 0.610253 13.934 0.316738 14.115 0.135761C14.296 -0.0452538 14.5895 -0.0452538 14.7705 0.135761L19.8643 5.22954C20.0453 5.41056 20.0453 5.70403 19.8643 5.88505C19.6833 6.06606 19.3898 6.06606 19.2088 5.88505Z" fill="#245DF5"/>
<path d="M7.34444 11.6067L0.458827 18.4923L0 19.9999L1.50769 19.5411L8.39323 12.6556L7.34444 11.6067Z" fill="#A6A6A6"/>
<path d="M12.9967 10.786L9.21399 7.0033C6.88075 6.11584 4.14173 6.61166 2.26221 8.49119L11.5088 17.7378C13.3883 15.8583 13.8841 13.1192 12.9967 10.786Z" fill="#245DF5"/>
</g>
<defs>
<clipPath id="clip0_2373_20179">
<rect width="20" height="20" fill="white"/>
</clipPath>
</defs>
</svg>
