<svg width="12" height="21" viewBox="0 0 12 21" fill="none" xmlns="http://www.w3.org/2000/svg">
<path d="M4.0967 14.9148V14.7955C4.10996 13.5294 4.24254 12.5218 4.49443 11.7727C4.74632 11.0237 5.10428 10.4171 5.56829 9.95312C6.03231 9.48911 6.58913 9.06155 7.23875 8.67045C7.62985 8.43182 7.98117 8.15009 8.29272 7.82528C8.60428 7.49384 8.84954 7.11269 9.02852 6.68182C9.21413 6.25095 9.30693 5.77367 9.30693 5.25C9.30693 4.60038 9.15447 4.03693 8.84954 3.55966C8.54462 3.08238 8.13695 2.71449 7.62653 2.45596C7.11612 2.19744 6.54935 2.06818 5.92625 2.06818C5.38269 2.06818 4.85901 2.18087 4.35522 2.40625C3.85144 2.63163 3.43051 2.98627 3.09244 3.47017C2.75437 3.95407 2.55882 4.58712 2.50579 5.36932H0.000110954C0.0531413 4.24242 0.344808 3.27793 0.875111 2.47585C1.41204 1.67377 2.11801 1.0606 2.99301 0.636361C3.87464 0.212119 4.85238 -2.14577e-06 5.92625 -2.14577e-06C7.09291 -2.14577e-06 8.10712 0.232005 8.96886 0.69602C9.83723 1.16004 10.5067 1.7964 10.9774 2.60511C11.4547 3.41382 11.6933 4.33523 11.6933 5.36932C11.6933 6.09848 11.5806 6.75805 11.3552 7.34801C11.1365 7.93797 10.8183 8.46496 10.4007 8.92898C9.98969 9.39299 9.49254 9.80398 8.9092 10.1619C8.32587 10.5265 7.85854 10.911 7.50721 11.3153C7.15589 11.7131 6.90068 12.187 6.74159 12.7372C6.5825 13.2874 6.49632 13.9735 6.48307 14.7955V14.9148H4.0967ZM5.36943 20.8011C4.8789 20.8011 4.45797 20.6255 4.10665 20.2741C3.75532 19.9228 3.57966 19.5019 3.57966 19.0114C3.57966 18.5208 3.75532 18.0999 4.10665 17.7486C4.45797 17.3973 4.8789 17.2216 5.36943 17.2216C5.85996 17.2216 6.28089 17.3973 6.63221 17.7486C6.98354 18.0999 7.1592 18.5208 7.1592 19.0114C7.1592 19.3362 7.07634 19.6345 6.91062 19.9062C6.75153 20.178 6.5361 20.3968 6.26432 20.5625C5.99916 20.7216 5.70087 20.8011 5.36943 20.8011Z" fill="#383838"/>
</svg>
