<svg width="20" height="20" viewBox="0 0 20 20" fill="none" xmlns="http://www.w3.org/2000/svg">
<g clip-path="url(#clip0_685_4811)">
<path d="M19.1592 15.0701L17.2229 13.1313C16.8153 12.7231 16.2038 12.7231 15.7962 13.1313C15.3885 13.5394 15.3885 14.1517 15.7962 14.5599L17.7325 16.4986C18.0382 16.8048 18.0382 17.315 17.7325 17.6211C17.4268 17.9272 16.9172 17.9272 16.6115 17.6211L13.5541 14.5599C13.758 14.3558 13.9618 14.2537 14.1656 14.0496C15.6943 12.519 16.6115 10.3762 16.6115 8.2333C16.6115 5.98843 15.7962 3.94761 14.1656 2.417C10.9045 -0.84831 5.70701 -0.84831 2.44586 2.417C-0.815288 5.6823 -0.815288 10.8864 2.44586 14.1517C3.97452 15.6823 6.11465 16.6007 8.2548 16.6007C9.4777 16.6007 10.7006 16.2945 11.7197 15.7843L15.0828 19.1517C15.5924 19.6619 16.4076 19.968 17.121 19.968C17.8344 19.968 18.5478 19.6619 19.1592 19.1517C20.2803 17.9272 20.2803 16.0905 19.1592 15.0701ZM3.87261 12.519C1.42675 10.0701 1.42675 6.09047 3.87261 3.74353C5.09554 2.51904 6.6242 1.90679 8.2548 1.90679C9.8854 1.90679 11.414 2.51904 12.6369 3.74353C13.8599 4.96802 14.4713 6.49863 14.4713 8.1313C14.4713 9.7639 13.8599 11.3966 12.6369 12.519C11.414 13.6415 9.8854 14.3558 8.2548 14.3558C6.6242 14.3558 4.99363 13.7435 3.87261 12.519Z" fill="white"/>
</g>
<defs>
<clipPath id="clip0_685_4811">
<rect width="20" height="20" fill="white"/>
</clipPath>
</defs>
</svg>
