<svg width="20" height="22" viewBox="0 0 20 22" fill="none" xmlns="http://www.w3.org/2000/svg">
<path fill-rule="evenodd" clip-rule="evenodd" d="M8.0144 0.508935C9.2164 -0.169645 10.6836 -0.169645 11.8856 0.508935C11.8947 0.514025 11.9036 0.519255 11.9125 0.524635L18.1001 4.27697C19.3211 4.97313 20 6.23099 20 7.59584V14.5058C20 15.8255 19.3552 17.1183 18.1836 17.7331L12.0125 21.4754C12.0036 21.4807 11.9947 21.486 11.9856 21.4911C10.7836 22.1697 9.3164 22.1697 8.1144 21.4911C8.1053 21.486 8.0964 21.4807 8.0875 21.4754L1.89984 17.723C0.67884 17.0268 0 15.769 0 14.4042V7.59584C0 6.23224 0.6776 4.97545 1.8965 4.27889L7.98139 0.528395C7.99225 0.521695 8.0032 0.515205 8.0144 0.508935ZM9.0006 2.27713L2.91861 6.02587C2.90775 6.03257 2.89675 6.03906 2.88564 6.04534C2.31578 6.36704 2 6.93374 2 7.59584V14.4042C2 15.0663 2.31578 15.633 2.88564 15.9547C2.89466 15.9598 2.9036 15.965 2.91246 15.9704L9.0978 19.7213C9.6895 20.0498 10.4105 20.0498 11.0022 19.7213L17.1875 15.9704C17.2088 15.9575 17.2306 15.9454 17.2528 15.9341C17.6582 15.7281 18 15.2048 18 14.5058V7.59584C18 6.93374 17.6842 6.36704 17.1144 6.04534C17.1053 6.04024 17.0964 6.03501 17.0875 6.02963L10.9022 2.27871C10.3115 1.95073 9.5918 1.9502 9.0006 2.27713ZM10 8.91689C8.8402 8.91689 7.89999 9.87228 7.89999 11.0508C7.89999 12.2294 8.8402 13.1848 10 13.1848C11.1598 13.1848 12.1 12.2294 12.1 11.0508C12.1 9.87228 11.1598 8.91689 10 8.91689ZM5.89999 11.0508C5.89999 8.74978 7.73563 6.88452 10 6.88452C12.2644 6.88452 14.1 8.74978 14.1 11.0508C14.1 13.3518 12.2644 15.2171 10 15.2171C7.73563 15.2171 5.89999 13.3518 5.89999 11.0508Z" fill="#383838"/>
</svg>
