<svg width="20" height="20" viewBox="0 0 20 20" fill="none" xmlns="http://www.w3.org/2000/svg">
<g clip-path="url(#clip0_487_2391)">
<path d="M16.0992 12.2998C13.9992 12.2998 12.1992 13.9998 12.1992 16.1998C12.1992 18.2998 13.8992 20.0998 16.0992 20.0998C18.1992 20.0998 19.9992 18.3998 19.9992 16.1998C19.9992 13.9998 18.2992 12.2998 16.0992 12.2998ZM16.0992 17.9998C15.0992 17.9998 14.1992 17.1998 14.1992 16.0998C14.1992 15.0998 14.9992 14.1998 16.0992 14.1998C17.0992 14.1998 17.9992 14.9998 17.9992 16.0998C17.9992 17.1998 17.1992 17.9998 16.0992 17.9998Z" fill="#383838"/>
<path d="M8.69916 8.4C8.79916 8.4 8.99916 8.4 9.09916 8.3L13.0992 6.3C13.7992 7.2 14.8992 7.8 16.0992 7.8C18.2992 7.7 19.9992 6 19.9992 3.9C19.9992 1.8 18.2992 0 16.0992 0C13.9992 0 12.1992 1.7 12.1992 3.9C12.1992 4.1 12.1992 4.3 12.2992 4.5L8.19916 6.5C7.69916 6.8 7.49916 7.4 7.79916 7.8C7.89916 8.2 8.29916 8.4 8.69916 8.4ZM16.0992 2C17.0992 2 17.9992 2.8 17.9992 3.9C17.9992 4.9 17.1992 5.8 16.0992 5.8C15.0992 5.8 14.1992 5 14.1992 3.9C14.2992 2.8 15.0992 2 16.0992 2Z" fill="#383838"/>
<path d="M11.7 12.9996L7.6 10.9996C7.7 10.6996 7.7 10.3996 7.7 9.9996C7.7 7.89961 6 6.09961 3.8 6.09961C1.6 6.09961 0 7.89961 0 9.9996C0 12.0996 1.7 13.8996 3.9 13.8996C5 13.8996 6 13.4996 6.7 12.6996L10.9 14.7996C11 14.8996 11.2 14.8996 11.3 14.8996C11.7 14.8996 12 14.6996 12.2 14.2996C12.4 13.8996 12.2 13.2996 11.7 12.9996ZM3.9 11.8996C2.8 11.8996 2 10.9996 2 9.9996C2 8.9996 2.8 8.0996 3.9 8.0996C4.9 8.0996 5.8 8.8996 5.8 9.9996C5.7 10.9996 4.9 11.8996 3.9 11.8996Z" fill="#383838"/>
</g>
<defs>
<clipPath id="clip0_487_2391">
<rect width="20" height="20" fill="white"/>
</clipPath>
</defs>
</svg>
