<svg width="16" height="16" viewBox="0 0 16 16" fill="none" xmlns="http://www.w3.org/2000/svg">
<g clip-path="url(#clip0_752_8925)">
<path fill-rule="evenodd" clip-rule="evenodd" d="M4.65454 0.727273C4.65454 0.325615 4.98015 0 5.38181 0H10.6182C11.0199 0 11.3455 0.325615 11.3455 0.727273C11.3455 1.12894 11.0199 1.45455 10.6182 1.45455H5.38181C4.98015 1.45455 4.65454 1.12894 4.65454 0.727273ZM0 3.34546C0 2.9438 0.325615 2.61818 0.727273 2.61818H15.2727C15.6744 2.61818 16 2.9438 16 3.34546C16 3.74711 15.6744 4.07273 15.2727 4.07273H14.2545V12.6545C14.2545 14.5108 12.7653 16 10.9091 16H5.0909C3.2217 16 1.74545 14.4977 1.74545 12.5818V4.07273H0.727273C0.325615 4.07273 0 3.74711 0 3.34546ZM3.19999 4.07273V12.5818C3.19999 13.7206 4.05102 14.5455 5.0909 14.5455H10.9091C11.962 14.5455 12.8 13.7074 12.8 12.6545V4.07273H3.19999ZM6.03636 5.96364C6.43803 5.96364 6.76364 6.28925 6.76364 6.69091V12C6.76364 12.4017 6.43803 12.7273 6.03636 12.7273C5.63471 12.7273 5.30909 12.4017 5.30909 12V6.69091C5.30909 6.28925 5.63471 5.96364 6.03636 5.96364ZM9.96364 5.96364C10.3653 5.96364 10.6909 6.28925 10.6909 6.69091V12C10.6909 12.4017 10.3653 12.7273 9.96364 12.7273C9.56196 12.7273 9.23636 12.4017 9.23636 12V6.69091C9.23636 6.28925 9.56196 5.96364 9.96364 5.96364Z" fill="#383838"/>
</g>
<defs>
<clipPath id="clip0_752_8925">
<rect width="16" height="16" fill="white"/>
</clipPath>
</defs>
</svg>
