<svg width="13" height="9" viewBox="0 0 13 9" fill="none" xmlns="http://www.w3.org/2000/svg">
<path d="M1.04095 8.4C1.14095 8.4 1.34095 8.4 1.44095 8.3L5.44095 6.3C6.14095 7.2 7.24095 7.8 8.44095 7.8C10.641 7.7 12.341 6 12.341 3.9C12.341 1.8 10.641 0 8.44095 0C6.34095 0 4.54095 1.7 4.54095 3.9C4.54095 4.1 4.54095 4.3 4.64095 4.5L0.540954 6.5C0.0409537 6.8 -0.159046 7.4 0.140954 7.8C0.240954 8.2 0.640954 8.4 1.04095 8.4ZM8.44095 2C9.44095 2 10.341 2.8 10.341 3.9C10.341 4.9 9.54095 5.8 8.44095 5.8C7.44095 5.8 6.54095 5 6.54095 3.9C6.64095 2.8 7.44095 2 8.44095 2Z" fill="#383838"/>
</svg>
