<svg width="13" height="9" viewBox="0 0 13 9" fill="none" xmlns="http://www.w3.org/2000/svg">
<path d="M11.7 6.89999L7.6 4.89999C7.7 4.59999 7.7 4.29999 7.7 3.89999C7.7 1.8 6 0 3.8 0C1.6 0 0 1.8 0 3.89999C0 5.99999 1.7 7.79999 3.9 7.79999C5 7.79999 6 7.39999 6.7 6.59999L10.9 8.69999C11 8.79999 11.2 8.79999 11.3 8.79999C11.7 8.79999 12 8.59999 12.2 8.19999C12.4 7.79999 12.2 7.19999 11.7 6.89999ZM3.9 5.79999C2.8 5.79999 2 4.89999 2 3.89999C2 2.89999 2.8 1.99999 3.9 1.99999C4.9 1.99999 5.8 2.79999 5.8 3.89999C5.7 4.89999 4.9 5.79999 3.9 5.79999Z" fill="#383838"/>
</svg>
