<svg width="20" height="20" viewBox="0 0 20 20" fill="none" xmlns="http://www.w3.org/2000/svg">
<path fill-rule="evenodd" clip-rule="evenodd" d="M10 2C5.58172 2 2 5.58172 2 9.99999C2 14.4183 5.58172 18 10 18C14.4183 18 18 14.4183 18 9.99999C18 5.58172 14.4183 2 10 2ZM0 9.99999C0 4.47715 4.47715 0 10 0C15.5228 0 20 4.47715 20 9.99999C20 15.5229 15.5228 20 10 20C4.47715 20 0 15.5229 0 9.99999Z" fill="#383838"/>
<path d="M5.30001 11.6C6.18367 11.6 6.90001 10.8837 6.90001 9.99999C6.90001 9.11639 6.18367 8.39999 5.30001 8.39999C4.41636 8.39999 3.70001 9.11639 3.70001 9.99999C3.70001 10.8837 4.41636 11.6 5.30001 11.6Z" fill="#383838"/>
<path d="M10 11.6C10.8836 11.6 11.6 10.8837 11.6 9.99999C11.6 9.11639 10.8836 8.39999 10 8.39999C9.1163 8.39999 8.4 9.11639 8.4 9.99999C8.4 10.8837 9.1163 11.6 10 11.6Z" fill="#383838"/>
<path d="M14.7 11.6C15.5837 11.6 16.3 10.8837 16.3 9.99999C16.3 9.11639 15.5837 8.39999 14.7 8.39999C13.8163 8.39999 13.1 9.11639 13.1 9.99999C13.1 10.8837 13.8163 11.6 14.7 11.6Z" fill="#383838"/>
</svg>
