<svg width="20" height="20" viewBox="0 0 20 20" fill="none" xmlns="http://www.w3.org/2000/svg">
<g clip-path="url(#clip0_487_237)">
<path fill-rule="evenodd" clip-rule="evenodd" d="M17.2736 2.69727C16.253 1.6829 14.483 1.79882 13.5733 2.89674L13.5696 2.90123L11.7537 5.06696C11.5217 5.34369 11.1585 5.47382 10.8035 5.40741L3.11056 3.96818C2.7687 3.92457 2.47303 4.02235 2.26987 4.21193C1.88377 4.66433 1.94354 5.21568 2.24971 5.51998C2.29859 5.56856 2.32395 5.59356 2.34536 5.61327C2.35032 5.61783 2.35418 5.62127 2.35706 5.62379C2.36502 5.62714 2.37983 5.63293 2.40403 5.64095C2.46248 5.66031 2.51901 5.68503 2.57291 5.71479L7.47581 8.42195C7.73958 8.56765 7.92362 8.82445 7.97676 9.12105C8.0299 9.41755 7.9465 9.72235 7.74973 9.95045L2.30206 16.2672L2.29016 16.2807C1.93694 16.6757 1.97126 17.3353 2.34051 17.7023C2.71183 18.0713 3.38439 18.1074 3.7866 17.7537L3.78811 17.7523L9.9587 12.2508C9.9678 12.2427 9.977 12.2348 9.9864 12.227L17.0683 6.3615C17.1379 6.3039 17.2144 6.25642 17.2955 6.21987C18.2421 5.25477 18.2348 3.65254 17.2736 2.69727ZM12.0352 1.61834C13.6683 -0.349733 16.7994 -0.593833 18.6835 1.27873C20.4388 3.02333 20.4388 5.91583 18.6835 7.66044C18.6812 7.66276 18.6785 7.66543 18.6755 7.66842C18.637 7.7069 18.5453 7.79855 18.44 7.87701C18.3922 7.91266 18.3106 7.9699 18.2 8.02105L11.2761 13.7557L5.11568 19.2482L5.11229 19.2512C3.88002 20.3399 2.01156 20.1951 0.930639 19.1208C-0.150661 18.0461 -0.299502 16.1843 0.792799 14.9549L5.43054 9.57725L1.67884 7.50575C1.51129 7.44357 1.35555 7.36641 1.20424 7.25899C1.05518 7.15317 0.933719 7.03209 0.855689 6.9543C0.850189 6.94882 0.844899 6.94356 0.839839 6.93852C-0.301442 5.80422 -0.244941 4.02313 0.799399 2.85543C0.812459 2.84083 0.825939 2.82661 0.839839 2.8128C1.54069 2.11624 2.50065 1.86139 3.41045 1.99056C3.42494 1.99262 3.43938 1.99499 3.45377 1.99769L10.5967 3.33402L12.0352 1.61834Z" fill="#383838"/>
<path fill-rule="evenodd" clip-rule="evenodd" d="M15.3455 8.12158C15.8858 8.00698 16.4166 8.35198 16.5313 8.89228L18.1538 16.5409C18.1572 16.557 18.1602 16.5732 18.1628 16.5895C18.3165 17.5436 18.0038 18.5202 17.2308 19.2061C15.7424 20.5268 13.416 20.1258 12.385 18.5575L10.9653 16.3979C10.6619 15.9364 10.7901 15.3164 11.2516 15.013C11.7131 14.7096 12.3331 14.8378 12.6365 15.2993L14.0562 17.4589C14.4449 18.0502 15.3636 18.1891 15.9034 17.7101C16.1391 17.501 16.2333 17.2256 16.1913 16.9277L14.5748 9.30728C14.4602 8.76708 14.8052 8.23618 15.3455 8.12158Z" fill="#383838"/>
</g>
<defs>
<clipPath id="clip0_487_237">
<rect width="20" height="20" fill="white"/>
</clipPath>
</defs>
</svg>
