<svg width="20" height="20" viewBox="0 0 20 20" fill="none" xmlns="http://www.w3.org/2000/svg">
<path d="M16.4179 2.6H14.9254V2C14.9254 1.4 14.5274 1 13.9303 1C13.3333 1 12.9353 1.4 12.9353 2V2.6H9.1542C8.5572 2.6 8.1592 3 8.1592 3.6C8.1592 4.2 8.5572 4.6 9.1542 4.6H13.0348V5.2C13.0348 5.8 13.4328 6.2 14.0299 6.2C14.6269 6.2 15.0249 5.8 15.0249 5.2V4.6H16.5174C17.2139 4.6 17.9104 5.2 17.9104 6V7.4H1.99005V6C1.99005 5.2 2.68657 4.6 3.48259 4.6H4.97512V5.2C4.97512 5.8 5.37313 6.2 5.97015 6.2C6.56716 6.2 6.96517 5.8 6.96517 5.2V3.6V2C6.96517 1.4 6.56716 1 5.97015 1C5.37313 1 4.97512 1.4 4.97512 2V2.6H3.48259C1.49254 2.6 0 4.1 0 6V15.6C0 17.5 1.49254 19 3.48259 19H16.5174C18.408 19 20 17.5 20 15.6V6C19.9005 4.1 18.408 2.6 16.4179 2.6ZM16.4179 17H3.48259C2.68657 17 1.99005 16.4 1.99005 15.6V9.4H17.9104V15.6C17.9104 16.4 17.2139 17 16.4179 17Z" fill="#383838"/>
</svg>
