<svg width="20" height="20" viewBox="0 0 20 20" fill="none" xmlns="http://www.w3.org/2000/svg">
<g clip-path="url(#clip0_494_1347)">
<path d="M10 20C4.5 20 0 15.5 0 9.99999C0 4.5 4.5 0 10 0C15.5 0 20 4.5 20 9.99999C20 15.5 15.5 20 10 20ZM10 2C5.6 2 2 5.6 2 9.99999C2 14.4 5.6 18 10 18C14.4 18 18 14.4 18 9.99999C18 5.6 14.4 2 10 2Z" fill="#383838"/>
<path d="M14.9 11.0006H10C9.4 11.0006 9 10.6006 9 10.0006V5.10059C9 4.50059 9.4 4.10059 10 4.10059C10.6 4.10059 11 4.50059 11 5.10059V9.00057H14.9C15.5 9.00057 15.9 9.40057 15.9 10.0006C15.9 10.6006 15.5 11.0006 14.9 11.0006Z" fill="#383838"/>
</g>
<defs>
<clipPath id="clip0_494_1347">
<rect width="20" height="20" fill="white"/>
</clipPath>
</defs>
</svg>
