<svg width="20" height="20" viewBox="0 0 20 20" fill="none" xmlns="http://www.w3.org/2000/svg">
<path d="M14.1083 2C12.55 2 11.175 2.63054 10.1667 3.80154C9.15833 2.63054 7.78333 2 6.225 2C3.38333 2 1 4.342 1 7.1344C1 7.31455 1 7.4947 1 7.6749C1.36667 11.9084 5.95 15.4215 8.60833 17.133C9.06667 17.4032 9.61667 17.5833 10.1667 17.5833C10.7167 17.5833 11.2667 17.4032 11.725 17.133C14.3833 15.4215 18.9667 11.9084 19.3333 7.76492C19.3333 7.58479 19.3333 7.40462 19.3333 7.22447C19.3333 4.342 16.95 2 14.1083 2ZM17.5 7.4947C17.225 11.0978 12.6417 14.3405 10.7167 15.5116C10.35 15.6917 9.98333 15.6917 9.61667 15.5116C7.69167 14.2505 3.2 11.0077 2.83333 7.40462C2.83333 7.40462 2.83333 7.22447 2.83333 7.1344C2.83333 5.33285 4.39167 3.80154 6.225 3.80154C7.6 3.80154 8.79167 4.61223 9.34167 5.78324C9.43333 6.14354 9.8 6.3237 10.1667 6.3237C10.5333 6.3237 10.9 6.14354 10.9917 5.78324C11.5417 4.61223 12.7333 3.80154 14.1083 3.80154C15.9417 3.80154 17.5 5.33285 17.5 7.1344C17.5 7.22447 17.5 7.40462 17.5 7.4947Z" fill="#383838"/>
</svg>
