<svg width="20" height="20" viewBox="0 0 20 20" fill="none" xmlns="http://www.w3.org/2000/svg">
<path d="M14.1083 2C12.55 2 11.175 2.63054 10.1667 3.80154C9.15833 2.63054 7.78333 2 6.225 2C3.38333 2 1 4.342 1 7.1344C1 7.31455 1 7.4947 1 7.6749C1.36667 11.9084 5.95 15.4215 8.60833 17.133C9.06667 17.4032 9.61667 17.5833 10.1667 17.5833C10.7167 17.5833 11.2667 17.4032 11.725 17.133C14.3833 15.4215 18.9667 11.9084 19.3333 7.76492C19.3333 7.58479 19.3333 7.40462 19.3333 7.22447C19.3333 4.342 16.95 2 14.1083 2Z" fill="#245DF5"/>
</svg>
