<svg width="20" height="20" viewBox="0 0 20 20" fill="none" xmlns="http://www.w3.org/2000/svg">
<path d="M17.1359 5.80112C16.6711 3.02284 14.347 0.692673 11.4651 0.154937C9.32692 -0.293172 7.09584 0.244555 5.4225 1.58889C3.6562 2.93322 2.72656 4.9049 2.72656 6.96621C2.72656 8.84827 3.47027 10.5511 4.86472 11.8955C5.51546 12.5227 5.88732 13.2397 6.07324 14.0464L6.25917 15.2115C6.53806 16.3765 7.56065 17.2727 8.86211 17.2727H11.0933C12.3017 17.2727 13.4174 16.3765 13.6962 15.2115L13.9751 14.0464C14.161 13.2397 14.5329 12.5227 15.1837 11.8955C16.857 10.2822 17.6007 8.04166 17.1359 5.80112ZM13.8822 10.6407C12.9526 11.5369 12.3947 12.6124 12.1158 13.6878L11.837 14.8529C11.837 15.2115 11.4651 15.4803 11.0933 15.4803H8.86211C8.49029 15.4803 8.21138 15.2115 8.11843 14.8529L7.83954 13.6878C7.65362 12.5227 7.00288 11.5369 6.07324 10.6407C5.14361 9.65482 4.58583 8.40018 4.58583 6.96621C4.58583 5.44264 5.32953 3.91905 6.53806 2.93322C7.56065 2.21625 8.7692 1.76814 9.97774 1.76814C10.3496 1.76814 10.7214 1.76813 11.0933 1.85776C13.2314 2.30586 14.9047 4.00868 15.2767 6.06998C15.6485 7.7728 15.0907 9.47564 13.8822 10.6407Z" fill="#383838"/>
<path d="M12.5696 18.1817H7.33323C6.75141 18.1817 6.36353 18.5454 6.36353 19.0908C6.36353 19.6363 6.75141 19.9999 7.33323 19.9999H12.6665C13.2483 19.9999 13.6363 19.6363 13.6363 19.0908C13.6363 18.5454 13.1514 18.1817 12.5696 18.1817Z" fill="#383838"/>
</svg>
