<svg width="16" height="16" viewBox="0 0 16 16" fill="none" xmlns="http://www.w3.org/2000/svg">
<path fill-rule="evenodd" clip-rule="evenodd" d="M12.4628 3.7436C11.3038 2.5846 9.3603 2.5846 8.2013 3.7436L7.13676 4.80812C6.87643 5.06847 6.45431 5.06847 6.19396 4.80812C5.93361 4.54777 5.93361 4.12566 6.19396 3.86531L7.2585 2.8008C8.93816 1.12109 11.7259 1.12109 13.4056 2.8008C15.0853 4.4805 15.0853 7.26821 13.4056 8.94788L12.3411 10.0124C12.0807 10.2727 11.6586 10.2727 11.3982 10.0124C11.1379 9.75208 11.1379 9.32994 11.3982 9.06961L12.4628 8.00508C13.6218 6.84608 13.6218 4.90261 12.4628 3.7436ZM10.4701 5.73628C10.7304 5.99663 10.7304 6.41874 10.4701 6.67908L6.4701 10.6791C6.20975 10.9394 5.78764 10.9394 5.52729 10.6791C5.26694 10.4187 5.26694 9.99661 5.52729 9.73628L9.5273 5.73628C9.78763 5.47593 10.2098 5.47593 10.4701 5.73628ZM4.59914 6.40295C4.85948 6.6633 4.85948 7.08541 4.59914 7.34574L3.53462 8.41028C2.37561 9.56928 2.37561 11.5127 3.53462 12.6717C4.69362 13.8307 6.6371 13.8307 7.7961 12.6717L8.86063 11.6073C9.12096 11.3469 9.5431 11.3469 9.80343 11.6073C10.0638 11.8676 10.0638 12.2897 9.80343 12.5501L8.7389 13.6145C7.05923 15.2943 4.27151 15.2943 2.59181 13.6145C0.912105 11.9349 0.912105 9.14714 2.59181 7.46748L3.65632 6.40295C3.91668 6.1426 4.33878 6.1426 4.59914 6.40295Z" fill="#A6A6A6"/>
</svg>
