<svg width="20" height="20" viewBox="0 0 20 20" fill="none" xmlns="http://www.w3.org/2000/svg">
<g clip-path="url(#clip0_712_13698)">
<path d="M15.6219 0H4.27861C1.89055 0 0 1.9 0 4.3V15.8C0 18.1 1.89055 20 4.27861 20H15.7214C18.1095 20 20 18.1 20 15.7V4.3C19.9005 1.9 18.01 0 15.6219 0ZM4.27861 2H15.7214C16.9154 2 17.9104 3 17.9104 4.3V5.8H1.99005V4.3C1.99005 3 2.98507 2 4.27861 2ZM15.6219 18H4.27861C2.98507 18 1.99005 17 1.99005 15.7V7.69998H17.9104V15.7C17.9104 17 16.9154 18 15.6219 18Z" fill="#383838"/>
<path d="M15.6998 9.79998H4.2998C3.6998 9.79998 3.2998 10.2 3.2998 10.8C3.2998 11.4 3.6998 11.8 4.2998 11.8H15.7998C16.3998 11.8 16.7998 11.4 16.7998 10.8C16.6998 10.3 16.2998 9.79998 15.6998 9.79998Z" fill="#383838"/>
<path d="M15.6998 13.9H4.2998C3.6998 13.9 3.2998 14.3 3.2998 14.9C3.2998 15.5 3.6998 15.9 4.2998 15.9H15.7998C16.3998 15.9 16.7998 15.5 16.7998 14.9C16.7998 14.3 16.2998 13.9 15.6998 13.9Z" fill="#383838"/>
</g>
<defs>
<clipPath id="clip0_712_13698">
<rect width="20" height="20" fill="white"/>
</clipPath>
</defs>
</svg>
