<svg width="20" height="20" viewBox="0 0 20 20" fill="none" xmlns="http://www.w3.org/2000/svg">
<path fill-rule="evenodd" clip-rule="evenodd" d="M9.05957 0.0306507C14.3939 -0.373788 18.8873 3.27486 18.9997 7.97935L19 7.9991C19 9.64352 18.4334 11.1804 17.4291 12.5002L17.4191 12.5132L12.3435 18.9419C12.3335 18.9546 12.323 18.9671 12.3123 18.9794C11.1456 20.3062 8.85107 20.3879 7.73004 18.9379L2.65283 12.5071C1.32935 10.8012 0.633884 8.64762 1.1963 6.36837C1.8898 2.95078 5.16764 0.434895 9.02907 0.0333871C9.03917 0.0323325 9.04937 0.0314143 9.05957 0.0306507ZM9.24107 1.84139C6.15049 2.16845 3.66858 4.16861 3.16013 6.71288C3.15753 6.72587 3.15463 6.73882 3.15141 6.7517C2.72766 8.44807 3.22518 10.0888 4.28486 11.4561L9.36506 17.8907C9.63576 18.2425 10.3109 18.325 10.7362 17.8596L15.7891 11.4596C16.571 10.4295 16.9977 9.25571 17 8.00896C16.9074 4.39237 13.45 1.52983 9.24107 1.84139Z" fill="#383838"/>
<path fill-rule="evenodd" clip-rule="evenodd" d="M9.90002 7C8.85062 7 8.00002 7.85066 8.00002 8.9C8.00002 9.94938 8.85062 10.8 9.90002 10.8C10.9493 10.8 11.8 9.94938 11.8 8.9C11.8 7.85066 10.9493 7 9.90002 7ZM6 8.9C6 6.74609 7.74609 5 9.90002 5C12.0539 5 13.8 6.74609 13.8 8.9C13.8 11.0539 12.0539 12.8 9.90002 12.8C7.74609 12.8 6 11.0539 6 8.9Z" fill="#383838"/>
</svg>
