<svg width="16" height="16" viewBox="0 0 16 16" fill="none" xmlns="http://www.w3.org/2000/svg">
<path d="M11.6 5.87435H11.3333V4.94102C11.4 3.07435 9.86667 1.54102 8 1.54102C6.13333 1.54102 4.6 3.07435 4.6 4.94102V5.94102H4.4C3.06667 5.94102 2 7.00768 2 8.34101V12.541C2 13.8743 3.06667 14.941 4.4 14.941H11.6667C13 14.941 14.0667 13.8743 14.0667 12.541V8.34101C14 6.94101 12.9333 5.87435 11.6 5.87435ZM5.93333 4.94102C5.93333 3.80768 6.86667 2.87435 8 2.87435C9.13333 2.87435 10.0667 3.80768 10.0667 4.94102V5.94102H5.93333V4.94102ZM12.8 12.4743C12.8 13.0743 12.2 13.541 11.6 13.541H4.4C3.8 13.541 3.33333 13.0743 3.33333 12.4743V8.27434C3.33333 7.67434 3.8 7.20768 4.4 7.20768H5.33333H10.8H11.7333C12.3333 7.20768 12.8 7.67434 12.8 8.27434V12.4743Z" fill="#A6A6A6"/>
<path d="M7.9987 10.2744C7.5987 10.2744 7.33203 10.5411 7.33203 10.9411V12.0077C7.33203 12.4077 7.5987 12.6744 7.9987 12.6744C8.3987 12.6744 8.66536 12.4077 8.66536 12.0077V10.9411C8.66536 10.5411 8.3987 10.2744 7.9987 10.2744Z" fill="#A6A6A6"/>
</svg>
