<svg width="20" height="20" viewBox="0 0 20 20" fill="none" xmlns="http://www.w3.org/2000/svg">
<path d="M19.0829 2.2C18.4407 1.7 17.615 1.7 16.9728 2L13.1195 3.8L7.43133 1.1C7.24784 1 7.15609 1 7.06435 1H6.9726C6.88086 1 6.78912 1 6.69737 1.1L1.8349 3.3C0.733955 3.8 0 5 0 6.4V15.6C0 16.5 0.366982 17.3 1.10094 17.8C1.46792 18.1 1.92664 18.2 2.38536 18.2C2.6606 18.2 3.02758 18.1 3.30281 18L5.04596 17.2C5.50469 17 5.68817 16.4 5.50469 15.9C5.3212 15.4 4.77073 15.2 4.31201 15.4L2.56885 16.2C2.38536 16.3 2.20187 16.2 2.11013 16.2C2.01838 16.1 1.8349 15.9 1.8349 15.6V6.4C1.8349 5.8 2.11013 5.3 2.56885 5.1L6.05515 3.5V15.2C6.05515 15.6 6.23865 16 6.60563 16.1L12.7525 18.9C12.8443 18.9 12.936 19 13.0277 19C13.1195 19 13.2113 19 13.303 18.9L18.0737 16.7C19.1746 16.2 19.9086 14.9 19.9086 13.6V4.4C20.1838 3.5 19.8169 2.7 19.0829 2.2ZM7.98179 3.5L12.2938 5.5V7.6V16.5L7.98179 14.5V3.5ZM18.349 13.6C18.349 14.2 18.0737 14.7 17.615 14.9L14.1287 16.5V7.6V5.5L17.7067 3.8C17.8903 3.7 18.0737 3.8 18.1655 3.8C18.1655 3.9 18.349 4.1 18.349 4.4V13.6Z" fill="#383838"/>
</svg>
