<svg width="20" height="20" viewBox="0 0 20 20" fill="none" xmlns="http://www.w3.org/2000/svg">
<g clip-path="url(#clip0_713_13754)">
<path fill-rule="evenodd" clip-rule="evenodd" d="M0 3.55902C0 1.54917 1.53008 0 3.5418 0H12.4582C14.4916 0 16 1.66478 16 3.55902V9.16865C16 11.2004 14.3551 12.7277 12.4582 12.7277H6.60681C5.99686 12.7277 5.44359 12.9283 4.93083 13.296L1.49836 15.8173C1.21241 16.0274 0.83264 16.0588 0.516085 15.8985C0.199529 15.7382 0 15.4136 0 15.0588V3.55902ZM1.88235 13.1996L3.82824 11.7702C4.61477 11.2048 5.5464 10.8454 6.60681 10.8454H12.4582C13.3478 10.8454 14.1176 10.1288 14.1176 9.16865V3.55902C14.1176 2.64842 13.3969 1.88235 12.4582 1.88235H3.5418C2.58137 1.88235 1.88235 2.57703 1.88235 3.55902V13.1996Z" fill="#383838"/>
<path fill-rule="evenodd" clip-rule="evenodd" d="M16.7474 6.57974C16.9437 6.10276 17.4912 5.8745 17.9703 6.06991C19.1516 6.55172 20 7.66543 20 8.97054V19.0667C20 19.409 19.8118 19.7238 19.5095 19.8871C19.2072 20.0503 18.8395 20.0357 18.5512 19.849L15.27 17.7235C15.2496 17.7102 15.2296 17.6961 15.2102 17.6813C14.8502 17.406 14.3063 17.2546 13.6582 17.2546H8.15729C6.85735 17.2546 5.64618 16.5398 5.09325 15.3981C4.86838 14.9339 5.06417 14.3759 5.53055 14.1521C5.99692 13.9282 6.5573 14.1231 6.78216 14.5874C7.00127 15.0399 7.52721 15.3879 8.15729 15.3879H13.6582C14.5424 15.3879 15.5281 15.5854 16.3208 16.1771L18.125 17.3459V8.97054C18.125 8.50435 17.8154 8.02388 17.2595 7.79721C16.7804 7.6018 16.5512 7.05672 16.7474 6.57974Z" fill="#383838"/>
</g>
<defs>
<clipPath id="clip0_713_13754">
<rect width="20" height="20" fill="white"/>
</clipPath>
</defs>
</svg>
