<svg width="15" height="20" viewBox="0 0 15 20" fill="none" xmlns="http://www.w3.org/2000/svg">
<path d="M5.66038 9.0411H9.62264V20L7.64151 18.4912L5.66038 20V9.0411Z" fill="url(#paint0_linear_2379_20282)"/>
<path d="M15 7.26027C15 11.27 11.6421 14.5205 7.5 14.5205C3.35786 14.5205 0 11.27 0 7.26027C0 3.25054 3.35786 0 7.5 0C11.6421 0 15 3.25054 15 7.26027Z" fill="url(#paint1_radial_2379_20282)"/>
<path d="M7.15652 2.14998C7.37652 1.79611 7.9065 1.79611 8.1265 2.14998L9.56734 4.46765C9.64638 4.59478 9.77529 4.68545 9.92461 4.71893L12.6469 5.32926C13.0625 5.42245 13.2263 5.91037 12.9466 6.22227L11.1148 8.265C11.0144 8.37704 10.9651 8.52375 10.9784 8.67157L11.22 11.3664C11.2569 11.7779 10.8281 12.0795 10.4353 11.9184L7.86231 10.8632C7.72118 10.8053 7.56184 10.8053 7.4207 10.8632L4.84776 11.9184C4.45491 12.0795 4.02615 11.7779 4.06304 11.3664L4.30464 8.67157C4.31789 8.52375 4.26865 8.37704 4.16817 8.265L2.33641 6.22227C2.05672 5.91037 2.22049 5.42245 2.63614 5.32926L5.3584 4.71893C5.50773 4.68545 5.63664 4.59478 5.71568 4.46765L7.15652 2.14998Z" fill="url(#paint2_radial_2379_20282)"/>
<defs>
<linearGradient id="paint0_linear_2379_20282" x1="7.64151" y1="14.5205" x2="7.64151" y2="20" gradientUnits="userSpaceOnUse">
<stop stop-color="white"/>
<stop offset="1" stop-color="#245DF5"/>
</linearGradient>
<radialGradient id="paint1_radial_2379_20282" cx="0" cy="0" r="1" gradientUnits="userSpaceOnUse" gradientTransform="translate(7.5 7.26027) rotate(90) scale(7.26027 7.5)">
<stop offset="0.759615" stop-color="white"/>
<stop offset="1" stop-color="#245DF5"/>
</radialGradient>
<radialGradient id="paint2_radial_2379_20282" cx="0" cy="0" r="1" gradientUnits="userSpaceOnUse" gradientTransform="translate(7.64151 7.39726) rotate(90) scale(6.0274 6.22641)">
<stop stop-color="white"/>
<stop offset="0.923077" stop-color="#245DF5"/>
</radialGradient>
</defs>
</svg>
