<svg width="20" height="24" viewBox="0 0 20 24" fill="none" xmlns="http://www.w3.org/2000/svg">
<path d="M7.03712 10.3957L11.549 11.1865L9.27594 24L7.33296 21.8404L4.76408 23.2092L7.03712 10.3957Z" fill="url(#paint0_linear_2379_20271)"/>
<path d="M8.36376 11.1577L12.8756 10.367L15.1487 23.1805L12.5798 21.8117L10.6368 23.9713L8.36376 11.1577Z" fill="url(#paint1_linear_2379_20271)"/>
<path d="M8.70988 0.626039C9.36498 -0.208681 10.635 -0.208679 11.2901 0.626041L14.0193 4.10352C14.2084 4.34446 14.4619 4.52758 14.7509 4.63189L18.9216 6.13726C19.9227 6.49861 20.3151 7.69923 19.7189 8.57646L17.235 12.231C17.0629 12.4843 16.966 12.7805 16.9555 13.086L16.8039 17.4938C16.7676 18.5519 15.7401 19.2939 14.7165 19.0013L10.4522 17.7825C10.1567 17.698 9.84329 17.698 9.54782 17.7825L5.28352 19.0013C4.25993 19.2939 3.23244 18.5519 3.19606 17.4938L3.0445 13.086C3.034 12.7805 2.93715 12.4843 2.76504 12.231L0.281113 8.57646C-0.315119 7.69923 0.0773487 6.49861 1.07845 6.13726L5.24909 4.63189C5.53806 4.52758 5.79163 4.34446 5.98072 4.10352L8.70988 0.626039Z" fill="url(#paint2_radial_2379_20271)"/>
<path d="M4.83923 6.7903C5.33922 6.82018 5.66858 7.33656 5.55139 7.82063C5.50782 8.00062 5.46811 8.19035 5.43228 8.38983C5.32965 8.98584 5.27824 9.59539 5.27824 10.2183C5.27825 10.8465 5.32964 11.4586 5.43228 12.0546C5.46958 12.2604 5.51139 12.4573 5.55771 12.6452C5.6776 13.1315 5.34704 13.6481 4.84417 13.6778C4.55592 13.6949 4.28222 13.5434 4.15822 13.2842C3.92941 12.8059 3.76259 12.3665 3.65766 11.966C3.52261 11.4505 3.45506 10.868 3.45505 10.2183C3.45505 9.55778 3.52261 8.97238 3.65766 8.46225C3.76673 8.06197 3.93611 7.63096 4.16572 7.16918C4.29046 6.91832 4.55821 6.7735 4.83923 6.7903Z" fill="white"/>
<path d="M15.1608 6.7903C15.4418 6.7735 15.7096 6.91828 15.834 7.16934C16.0626 7.63106 16.2295 8.06202 16.3343 8.46225C16.4748 8.97237 16.545 9.55779 16.545 10.2183C16.5449 10.868 16.4774 11.4505 16.3423 11.966C16.2374 12.3665 16.0706 12.8059 15.8418 13.2842C15.7178 13.5434 15.4441 13.6949 15.1558 13.6778C14.653 13.6481 14.3222 13.1313 14.4391 12.6442C14.4841 12.4566 14.5244 12.2601 14.5597 12.0546C14.6678 11.4586 14.7218 10.8465 14.7218 10.2183C14.7218 9.5954 14.6678 8.98584 14.5597 8.38983C14.5258 8.1907 14.4876 8.00129 14.4453 7.82158C14.3312 7.33679 14.6608 6.82018 15.1608 6.7903Z" fill="white"/>
<path d="M9.84373 7.27009C10.4055 7.27009 10.9809 7.34271 11.5698 7.48768C11.6736 7.51207 11.7756 7.5381 11.8758 7.56576C12.6328 7.77473 12.9308 8.62429 12.68 9.3644C12.6433 9.48577 12.4978 9.52657 12.3885 9.46125C12.1264 9.30451 11.7806 9.17007 11.3512 9.05817C10.7948 8.90783 10.3031 8.83265 9.87632 8.83264C9.3631 8.83264 9.01725 8.86766 8.83897 8.93747C8.66071 9.0019 8.57149 9.09861 8.57149 9.22749C8.57154 9.35632 8.69311 9.46112 8.93613 9.54165C9.18461 9.61682 9.54122 9.65441 10.0058 9.65442C11.151 9.65442 11.983 9.78585 12.5017 10.0489C13.0203 10.3067 13.2798 10.7041 13.2798 11.2411C13.2798 11.9929 13.0041 12.5352 12.4531 12.8681C11.902 13.1957 11.0674 13.3596 9.94919 13.3596C9.34953 13.3596 8.73895 13.295 8.11769 13.1661C7.8186 13.1015 7.53388 13.0232 7.26355 12.9312C6.81299 12.778 6.68104 12.2445 6.89402 11.8211C7.11166 11.4073 7.62697 11.2143 8.07145 11.3655C8.23577 11.4213 8.40788 11.4712 8.58779 11.5149C9.09555 11.6384 9.5682 11.7001 10.0058 11.7001C10.4541 11.7001 10.7703 11.6625 10.9539 11.5874C11.1376 11.5068 11.2294 11.421 11.2294 11.3297C11.2294 11.0022 10.7271 10.8383 9.72229 10.8383C8.62022 10.8383 7.82055 10.7255 7.32354 10.5C6.8266 10.2691 6.57797 9.89862 6.57796 9.38854C6.57796 8.66366 6.88058 8.12932 7.48556 7.78564C8.0906 7.44198 8.87675 7.2701 9.84373 7.27009Z" fill="white"/>
<defs>
<linearGradient id="paint0_linear_2379_20271" x1="11.7562" y1="17.1691" x2="12.8795" y2="23.5782" gradientUnits="userSpaceOnUse">
<stop stop-color="white"/>
<stop offset="1" stop-color="#245DF5"/>
</linearGradient>
<linearGradient id="paint1_linear_2379_20271" x1="11.7562" y1="17.1691" x2="12.8795" y2="23.5782" gradientUnits="userSpaceOnUse">
<stop stop-color="white"/>
<stop offset="1" stop-color="#245DF5"/>
</linearGradient>
<radialGradient id="paint2_radial_2379_20271" cx="0" cy="0" r="1" gradientUnits="userSpaceOnUse" gradientTransform="translate(9.99998 10.367) rotate(90) scale(11.3848 11.4537)">
<stop offset="0.567308" stop-color="#245DF5"/>
<stop offset="1" stop-color="white"/>
</radialGradient>
</defs>
</svg>
