<svg width="20" height="24" viewBox="0 0 20 24" fill="none" xmlns="http://www.w3.org/2000/svg">
<path d="M7.70927 10.826H12.2907V24L10 22.1862L7.70927 24V10.826Z" fill="url(#paint0_linear_2379_20272)"/>
<path d="M8.70988 0.633871C9.36498 -0.211291 10.635 -0.21129 11.2901 0.633873L14.0193 4.15485C14.2084 4.39881 14.4619 4.58422 14.7509 4.68983L18.9216 6.21404C19.9227 6.57991 20.3151 7.79555 19.7189 8.68376L17.235 12.3841C17.0629 12.6404 16.966 12.9404 16.9555 13.2497L16.8039 17.7127C16.7676 18.7839 15.7401 19.5353 14.7165 19.239L10.4522 18.005C10.1567 17.9195 9.84329 17.9195 9.54782 18.005L5.28352 19.239C4.25993 19.5353 3.23244 18.7839 3.19606 17.7127L3.0445 13.2497C3.034 12.9404 2.93715 12.6404 2.76504 12.3841L0.281113 8.68376C-0.315119 7.79555 0.0773487 6.57991 1.07845 6.21404L5.24909 4.68983C5.53806 4.58422 5.79163 4.39881 5.98072 4.15485L8.70988 0.633871Z" fill="url(#paint1_radial_2379_20272)"/>
<defs>
<linearGradient id="paint0_linear_2379_20272" x1="9.99998" y1="17.413" x2="9.99998" y2="24" gradientUnits="userSpaceOnUse">
<stop stop-color="white"/>
<stop offset="1" stop-color="#245DF5"/>
</linearGradient>
<radialGradient id="paint1_radial_2379_20272" cx="0" cy="0" r="1" gradientUnits="userSpaceOnUse" gradientTransform="translate(9.99998 10.4967) rotate(90) scale(11.5272 11.4537)">
<stop offset="0.197115" stop-color="white"/>
<stop offset="1" stop-color="#245DF5"/>
</radialGradient>
</defs>
</svg>
