<svg width="15" height="20" viewBox="0 0 15 20" fill="none" xmlns="http://www.w3.org/2000/svg">
<path d="M4.92288 8.52759L8.70481 9.19445L6.79951 20L5.17087 18.1788L3.01758 19.3331L4.92288 8.52759Z" fill="url(#paint0_linear_2379_20246)"/>
<path d="M6.03467 9.17028L9.8166 8.50342L11.7219 19.3089L9.56861 18.1547L7.93997 19.9758L6.03467 9.17028Z" fill="url(#paint1_linear_2379_20246)"/>
<path d="M14.5382 7.2691C14.5382 11.2837 11.2837 14.5382 7.26908 14.5382C3.25448 14.5382 0 11.2837 0 7.2691C0 3.25449 3.25448 0 7.26908 0C11.2837 0 14.5382 3.25449 14.5382 7.2691Z" fill="url(#paint2_radial_2379_20246)"/>
<path d="M6.91067 2.19506C7.13547 1.82853 7.67702 1.82853 7.90182 2.19506L8.30321 2.84952C8.38397 2.9812 8.5157 3.07511 8.66828 3.10978L9.42665 3.28213C9.85138 3.37865 10.0187 3.88403 9.73294 4.20707L9.22264 4.78389C9.11997 4.89995 9.06965 5.0519 9.0832 5.20501L9.1505 5.96598C9.1882 6.39216 8.75007 6.7045 8.34864 6.53763L7.63187 6.23966C7.48766 6.17971 7.32483 6.17971 7.18062 6.23966L6.46384 6.53763C6.06242 6.7045 5.62429 6.39216 5.66199 5.96598L5.72929 5.20501C5.74284 5.0519 5.69252 4.89995 5.58985 4.78389L5.07955 4.20707C4.79376 3.88403 4.96111 3.37865 5.38583 3.28213L6.1442 3.10978C6.29679 3.07511 6.42852 2.9812 6.50928 2.84952L6.91067 2.19506Z" fill="url(#paint3_radial_2379_20246)"/>
<path d="M4.16751 7.13256C4.39231 6.76603 4.93386 6.76603 5.15866 7.13256L5.56005 7.78702C5.64081 7.9187 5.77254 8.01261 5.92512 8.04728L6.68349 8.21963C7.10822 8.31615 7.27556 8.82153 6.98977 9.14457L6.47948 9.72139C6.37681 9.83745 6.32649 9.9894 6.34003 10.1425L6.40734 10.9035C6.44503 11.3297 6.00691 11.642 5.60548 11.4751L4.88871 11.1772C4.74449 11.1172 4.58167 11.1172 4.43745 11.1772L3.72068 11.4751C3.31925 11.642 2.88113 11.3297 2.91882 10.9035L2.98613 10.1425C2.99967 9.9894 2.94935 9.83745 2.84668 9.72139L2.33639 9.14457C2.0506 8.82153 2.21795 8.31615 2.64267 8.21963L3.40104 8.04728C3.55362 8.01261 3.68535 7.9187 3.76611 7.78702L4.16751 7.13256Z" fill="url(#paint4_radial_2379_20246)"/>
<path d="M9.65359 7.13256C9.87839 6.76603 10.4199 6.76603 10.6447 7.13256L11.0461 7.78702C11.1269 7.9187 11.2586 8.01261 11.4112 8.04728L12.1696 8.21963C12.5943 8.31615 12.7616 8.82153 12.4759 9.14457L11.9656 9.72139C11.8629 9.83745 11.8126 9.9894 11.8261 10.1425L11.8934 10.9035C11.9311 11.3297 11.493 11.642 11.0916 11.4751L10.3748 11.1772C10.2306 11.1172 10.0678 11.1172 9.92354 11.1772L9.20676 11.4751C8.80534 11.642 8.36721 11.3297 8.40491 10.9035L8.47221 10.1425C8.48575 9.9894 8.43544 9.83745 8.33277 9.72139L7.82247 9.14457C7.53668 8.82153 7.70403 8.31615 8.12875 8.21963L8.88712 8.04728C9.03971 8.01261 9.17144 7.9187 9.2522 7.78702L9.65359 7.13256Z" fill="url(#paint5_radial_2379_20246)"/>
<defs>
<linearGradient id="paint0_linear_2379_20246" x1="5.86123" y1="14.2638" x2="4.90857" y2="19.6665" gradientUnits="userSpaceOnUse">
<stop stop-color="white"/>
<stop offset="1" stop-color="#245DF5"/>
</linearGradient>
<linearGradient id="paint1_linear_2379_20246" x1="8.87828" y1="14.2396" x2="9.83094" y2="19.6424" gradientUnits="userSpaceOnUse">
<stop stop-color="white"/>
<stop offset="1" stop-color="#245DF5"/>
</linearGradient>
<radialGradient id="paint2_radial_2379_20246" cx="0" cy="0" r="1" gradientUnits="userSpaceOnUse" gradientTransform="translate(7.26908 7.2691) rotate(90) scale(7.2691 7.26908)">
<stop offset="0.759615" stop-color="white"/>
<stop offset="1" stop-color="#245DF5"/>
</radialGradient>
<radialGradient id="paint3_radial_2379_20246" cx="0" cy="0" r="1" gradientUnits="userSpaceOnUse" gradientTransform="translate(7.40624 4.25176) rotate(90) scale(2.3316 2.46874)">
<stop stop-color="white"/>
<stop offset="0.923077" stop-color="#245DF5"/>
</radialGradient>
<radialGradient id="paint4_radial_2379_20246" cx="0" cy="0" r="1" gradientUnits="userSpaceOnUse" gradientTransform="translate(4.66308 9.18926) rotate(90) scale(2.3316 2.46874)">
<stop stop-color="white"/>
<stop offset="0.923077" stop-color="#245DF5"/>
</radialGradient>
<radialGradient id="paint5_radial_2379_20246" cx="0" cy="0" r="1" gradientUnits="userSpaceOnUse" gradientTransform="translate(10.1492 9.18926) rotate(90) scale(2.3316 2.46874)">
<stop stop-color="white"/>
<stop offset="0.923077" stop-color="#245DF5"/>
</radialGradient>
</defs>
</svg>
