<svg width="20" height="20" viewBox="0 0 20 20" fill="none" xmlns="http://www.w3.org/2000/svg">
<g clip-path="url(#clip0_712_13699)">
<path d="M17.4 0H2.6C1.2 0 0 1.2 0 2.6V5C0 5.6 0.4 6 1 6C1.6 6 2 5.6 2 5V2.6C2 2.3 2.3 2 2.6 2H7V18H5C4.4 18 4 18.4 4 19C4 19.6 4.4 20 5 20H14.8C15.4 20 15.8 19.6 15.8 19C15.8 18.4 15.4 18 14.8 18H12.8V2H17.2C17.7 2 18 2.3 18 2.6V5C18 5.6 18.4 6 19 6C19.6 6 20 5.6 20 5V2.6C20 1.2 18.8 0 17.4 0ZM11 18H9V2H11V18Z" fill="#383838"/>
</g>
<defs>
<clipPath id="clip0_712_13699">
<rect width="20" height="20" fill="white"/>
</clipPath>
</defs>
</svg>
