<svg width="24" height="24" viewBox="0 0 24 24" fill="none" xmlns="http://www.w3.org/2000/svg">
<path fill-rule="evenodd" clip-rule="evenodd" d="M8 3C6.93579 3 6 3.8759 6 5.01676V16.9832C6 18.067 6.87901 19 8 19H16C17.0425 19 18 18.1457 18 16.8827V5.01676C18 3.93299 17.121 3 16 3H8ZM4 5.01676C4 2.73863 5.86421 1 8 1H16C18.279 1 20 2.88265 20 5.01676V16.8827C20 19.2398 18.1575 21 16 21H8C5.72098 21 4 19.1173 4 16.9832V5.01676Z" fill="#383838"/>
<path fill-rule="evenodd" clip-rule="evenodd" d="M9 19C9.55228 19 10 19.4477 10 20V22C10 22.5523 9.55228 23 9 23C8.44772 23 8 22.5523 8 22V20C8 19.4477 8.44772 19 9 19Z" fill="#383838"/>
<path fill-rule="evenodd" clip-rule="evenodd" d="M15 19C15.5523 19 16 19.4477 16 20V22C16 22.5523 15.5523 23 15 23C14.4477 23 14 22.5523 14 22V20C14 19.4477 14.4477 19 15 19Z" fill="#383838"/>
<path fill-rule="evenodd" clip-rule="evenodd" d="M9.90039 6.09961C10.4527 6.09961 10.9004 6.54732 10.9004 7.09961V14.7996C10.9004 15.3519 10.4527 15.7996 9.90039 15.7996C9.34811 15.7996 8.90039 15.3519 8.90039 14.7996V7.09961C8.90039 6.54732 9.34811 6.09961 9.90039 6.09961Z" fill="#383838"/>
<path fill-rule="evenodd" clip-rule="evenodd" d="M14.0996 6.09961C14.6519 6.09961 15.0996 6.54732 15.0996 7.09961V14.7996C15.0996 15.3519 14.6519 15.7996 14.0996 15.7996C13.5473 15.7996 13.0996 15.3519 13.0996 14.7996V7.09961C13.0996 6.54732 13.5473 6.09961 14.0996 6.09961Z" fill="#383838"/>
</svg>
