<svg width="20" height="20" viewBox="0 0 20 20" fill="none" xmlns="http://www.w3.org/2000/svg">
<g clip-path="url(#clip0_490_495)">
<path d="M18.6791 15.3837C17.6769 12.9348 15.7727 11.098 13.4676 10.1797C14.7705 9.15922 15.5723 7.52662 15.5723 5.79192C15.5723 2.52661 13.0667 -0.0244141 9.9598 -0.0244141C6.85296 -0.0244141 4.34741 2.52661 4.34741 5.68988C4.34741 7.42462 5.14919 9.05722 6.45207 10.0776C4.14697 10.996 2.24275 12.8327 1.24053 15.2817C0.839642 16.3021 0.939872 17.5266 1.5412 18.445C2.14253 19.4654 3.24497 19.9756 4.44763 19.9756H15.5723C16.7749 19.9756 17.7772 19.3633 18.4787 18.445C19.08 17.5266 19.1803 16.4041 18.6791 15.3837ZM6.35185 5.68988C6.35185 3.64906 7.9554 2.01641 9.9598 2.01641C11.9643 2.01641 13.5678 3.64906 13.5678 5.68988C13.5678 7.73072 11.9643 9.36332 9.9598 9.36332C7.9554 9.36332 6.35185 7.73072 6.35185 5.68988ZM16.7749 17.4246C16.4743 17.8327 16.0734 18.1388 15.5723 18.1388H4.34741C3.8463 18.1388 3.44542 17.9348 3.14475 17.4246C2.84408 17.0164 2.84408 16.6082 3.04453 16.2001C4.24719 13.2409 6.95318 11.4041 9.9598 11.4041C12.9665 11.4041 15.6725 13.2409 16.8752 16.098C17.0756 16.5062 16.9754 17.0164 16.7749 17.4246Z" fill="#383838"/>
</g>
<defs>
<clipPath id="clip0_490_495">
<rect width="20" height="20" fill="white"/>
</clipPath>
</defs>
</svg>
