<svg width="16" height="16" viewBox="0 0 16 16" fill="none" xmlns="http://www.w3.org/2000/svg">
<path d="M4.53235 12.7172H2.33235C2.19902 12.7172 2.13235 12.6505 2.06568 12.5839C1.99902 12.5172 1.93235 12.3839 1.99902 12.2505C2.39902 11.1172 3.39902 10.4505 4.53235 10.4505C5.93235 10.4505 7.06569 9.25053 7.06569 7.85053C7.06569 6.45052 5.93235 5.11719 4.53235 5.11719C3.13235 5.11719 1.99902 6.31719 1.99902 7.78386C1.99902 8.45053 2.26568 9.11719 2.66568 9.58386C1.79902 10.0505 1.13235 10.7839 0.73235 11.7839C0.599019 12.2505 0.665686 12.8505 0.999017 13.3172C1.33235 13.7839 1.79902 14.0505 2.33235 14.0505H4.53235C4.93235 14.0505 5.19902 13.7839 5.19902 13.3839C5.19902 12.9839 4.93235 12.7172 4.53235 12.7172ZM3.33235 7.78386C3.33235 7.05053 3.86568 6.51719 4.53235 6.51719C5.19902 6.51719 5.73235 7.11719 5.73235 7.78386C5.73235 8.51719 5.19902 9.05053 4.53235 9.05053C3.86568 9.05053 3.33235 8.45053 3.33235 7.78386Z" fill="#A6A6A6"/>
<path d="M15.267 11.3843C14.8004 10.1176 13.867 9.18431 12.8004 8.65098C13.4004 8.11764 13.7337 7.31764 13.7337 6.38431C13.7337 4.65098 12.4004 3.25098 10.8004 3.25098C9.20037 3.25098 7.86703 4.65098 7.86703 6.38431C7.86703 7.25098 8.20037 8.05098 8.80037 8.65098C7.7337 9.18431 6.80037 10.1176 6.33371 11.3843C6.00037 11.9843 6.13371 12.651 6.46704 13.1843C6.80037 13.7176 7.40037 13.9843 8.00037 13.9843H13.5337C14.1337 13.9843 14.7337 13.651 15.067 13.1843C15.467 12.651 15.5337 11.9843 15.267 11.3843ZM9.1337 6.45098C9.1337 5.45098 9.86703 4.65098 10.7337 4.65098C11.6004 4.65098 12.3337 5.45098 12.3337 6.45098C12.3337 7.45098 11.6004 8.25098 10.7337 8.25098C9.86703 8.25098 9.1337 7.38431 9.1337 6.45098ZM13.9337 12.451C13.867 12.5176 13.7337 12.7176 13.5337 12.7176H8.00037C7.7337 12.7176 7.60037 12.5176 7.60037 12.451C7.5337 12.3843 7.40037 12.1176 7.5337 11.851C8.06703 10.451 9.40037 9.51764 10.8004 9.51764C12.2004 9.51764 13.5337 10.451 14.067 11.851C14.1337 12.1176 14.0004 12.3843 13.9337 12.451Z" fill="#A6A6A6"/>
</svg>
