<svg width="20" height="20" viewBox="0 0 20 20" fill="none" xmlns="http://www.w3.org/2000/svg">
<path d="M5.072 15.1913H2.1845C2.0095 15.1913 1.922 15.1038 1.8345 15.0163C1.747 14.9288 1.6595 14.7538 1.747 14.5788C2.272 13.0913 3.5845 12.2163 5.072 12.2163C6.9095 12.2163 8.39701 10.6413 8.39701 8.80382C8.39701 6.96631 6.9095 5.21631 5.072 5.21631C3.2345 5.21631 1.747 6.79131 1.747 8.71632C1.747 9.59132 2.097 10.4663 2.622 11.0788C1.4845 11.6913 0.609501 12.6538 0.084501 13.9663C-0.0904964 14.5788 -0.00299638 15.3663 0.434501 15.9788C0.872001 16.5913 1.4845 16.9413 2.1845 16.9413H5.072C5.597 16.9413 5.947 16.5913 5.947 16.0663C5.947 15.5413 5.597 15.1913 5.072 15.1913ZM3.497 8.71632C3.497 7.75382 4.197 7.05381 5.072 7.05381C5.947 7.05381 6.647 7.84132 6.647 8.71632C6.647 9.67882 5.947 10.3788 5.072 10.3788C4.197 10.3788 3.497 9.59132 3.497 8.71632Z" fill="#383838"/>
<path d="M19.162 13.4416C18.5495 11.7791 17.3245 10.5541 15.9245 9.8541C16.712 9.1541 17.1495 8.1041 17.1495 6.8791C17.1495 4.6041 15.3995 2.7666 13.2995 2.7666C11.1995 2.7666 9.4495 4.6041 9.4495 6.8791C9.4495 8.0166 9.887 9.0666 10.6745 9.8541C9.2745 10.5541 8.0495 11.7791 7.43701 13.4416C6.99951 14.2291 7.17451 15.1041 7.61201 15.8041C8.0495 16.5041 8.837 16.8541 9.6245 16.8541H16.887C17.6745 16.8541 18.462 16.4166 18.8995 15.8041C19.4245 15.1041 19.512 14.2291 19.162 13.4416ZM11.112 6.9666C11.112 5.6541 12.0745 4.6041 13.212 4.6041C14.3495 4.6041 15.312 5.6541 15.312 6.9666C15.312 8.2791 14.3495 9.3291 13.212 9.3291C12.0745 9.3291 11.112 8.1916 11.112 6.9666ZM17.412 14.8416C17.3245 14.9291 17.1495 15.1916 16.887 15.1916H9.6245C9.2745 15.1916 9.0995 14.9291 9.0995 14.8416C9.012 14.7541 8.837 14.4041 9.012 14.0541C9.712 12.2166 11.462 10.9916 13.2995 10.9916C15.137 10.9916 16.887 12.2166 17.587 14.0541C17.6745 14.4041 17.4995 14.7541 17.412 14.8416Z" fill="#383838"/>
</svg>
