<svg width="512" height="512" viewBox="0 0 512 512" fill="none" xmlns="http://www.w3.org/2000/svg">
<rect y="37" width="512" height="437" rx="100" fill="#245DF5"/>
<path fill-rule="evenodd" clip-rule="evenodd" d="M101.505 151.829C116.499 152.731 126.378 168.311 122.864 182.916C121.558 188.345 120.367 194.069 119.293 200.087C116.215 218.069 114.676 236.456 114.676 255.249C114.676 274.203 116.215 292.671 119.293 310.653C120.412 316.863 121.666 322.802 123.055 328.471C126.651 343.143 116.739 358.728 101.659 359.625C93.015 360.139 84.8075 355.57 81.0886 347.75C74.2261 333.32 69.2218 320.063 66.0751 307.98C62.0251 292.428 60 274.851 59.9999 255.249C59.9999 235.323 62.0252 217.664 66.0751 202.274C69.3458 190.198 74.4235 177.193 81.3083 163.26C85.0483 155.692 93.0778 151.323 101.505 151.829ZM411.028 151.829C419.454 151.323 427.486 155.69 431.214 163.265C438.07 177.196 443.07 190.199 446.215 202.274C450.427 217.664 452.533 235.323 452.533 255.249C452.533 274.851 450.508 292.428 446.458 307.98C443.311 320.063 438.306 333.32 431.443 347.751C427.725 355.57 419.517 360.139 410.874 359.625C395.794 358.728 385.876 343.137 389.38 328.443C390.73 322.783 391.936 316.853 392.997 310.653C396.237 292.671 397.857 274.203 397.857 255.249C397.857 236.456 396.237 218.069 392.997 200.087C391.978 194.08 390.835 188.365 389.567 182.944C386.147 168.317 396.033 152.731 411.028 151.829ZM251.583 166.309C268.431 166.309 285.684 168.496 303.342 172.87C306.457 173.606 309.518 174.392 312.525 175.228C335.222 181.535 344.154 207.165 336.634 229.49C335.535 233.151 331.165 234.38 327.889 232.41C320.028 227.683 309.659 223.631 296.781 220.256C280.095 215.719 265.353 213.452 252.555 213.452C237.164 213.452 226.796 214.505 221.45 216.611C216.104 218.555 213.432 221.471 213.432 225.359C213.432 229.247 217.076 232.407 224.366 234.837C231.818 237.105 242.51 238.238 256.442 238.238C290.786 238.238 315.735 242.207 331.287 250.145C346.839 257.921 354.615 269.91 354.615 286.11C354.615 308.79 346.353 325.153 329.829 335.197C313.305 345.079 288.276 350.02 254.742 350.02C236.76 350.02 218.453 348.076 199.823 344.188C190.853 342.238 182.315 339.875 174.208 337.098C160.699 332.471 156.744 316.379 163.13 303.606C169.654 291.124 185.104 285.301 198.43 289.861C203.358 291.548 208.521 293.051 213.917 294.372C229.145 298.098 243.32 299.961 256.442 299.961C269.888 299.961 279.366 298.827 284.874 296.559C290.382 294.129 293.136 291.537 293.136 288.783C293.136 278.901 278.07 273.96 247.937 273.96C214.889 273.96 190.913 270.558 176.009 263.754C161.105 256.787 153.652 245.609 153.652 230.219C153.652 208.349 162.725 192.229 180.869 181.861C199.013 171.493 222.585 166.309 251.583 166.309Z" fill="white"/>
</svg>
